<svg width="500" height="500" viewBox="0 0 500 500" fill="none" xmlns="http://www.w3.org/2000/svg">
<circle cx="250" cy="250" r="250" fill="white"/>
<path d="M390.73 145.729L297.933 154.017C281.925 144.704 266.002 141.03 249.138 141.03C244.687 141.03 240.15 141.457 235.612 142.226L138.878 106.255C135.026 104.802 132.201 109.929 135.454 112.407L195.035 158.375C182.451 166.235 170.638 176.318 160.365 188.023C142.473 208.359 120.216 264.323 109.344 293.545C104.721 306.019 107.033 319.947 115.422 330.2C135.111 354.124 176.117 393 254.874 393C327.125 393 363.593 360.703 380.714 336.95C390.216 323.791 392.956 307.045 388.333 291.494C380.457 265.263 364.107 219.808 337.483 188.621C336.542 187.511 335.6 186.4 334.658 185.374L392.442 151.197C395.267 149.659 393.983 145.473 390.73 145.729Z" fill="#FF4C46"/>
<path d="M293.767 314.785C286.872 317.225 271.379 320.842 254.269 312.094C253.418 311.673 252.566 312.767 253.247 313.44C258.695 319.244 268.4 329.338 274.273 334.301C275.465 335.311 277.338 335.226 278.444 334.049L294.788 316.215C295.384 315.543 294.618 314.449 293.767 314.785Z" fill="white"/>
<path d="M357.931 238.741C349.129 219.759 336.056 201.975 316.231 199.666C312.642 199.239 309.054 200.094 305.892 201.889L284.273 214.715C278.89 217.878 272.054 217.451 267.183 213.603L248.385 199.068C242.061 194.194 234.884 190.603 227.108 188.808C194.808 181.198 172.933 198.127 156.441 229.934C140.633 260.287 149.434 303.893 188.399 314.324C229.5 325.268 256.673 279.61 267.525 264.391C269.576 261.484 273.934 261.484 276.07 264.391C292.904 287.305 315.633 311.844 339.901 306.971C371.602 300.473 367.843 260.201 357.931 238.741ZM238.985 262.937C231.124 268.239 220.955 267.042 214.974 258.064C208.907 249.086 211.641 239.254 219.503 233.952C227.364 228.651 237.533 229.848 243.514 238.826C249.581 247.804 246.932 257.636 238.985 262.937ZM323.067 264.477C315.206 269.778 305.037 268.581 299.056 259.603C292.989 250.625 295.724 240.793 303.585 235.491C311.446 230.19 321.615 231.387 327.596 240.365C333.663 249.343 330.929 259.175 323.067 264.477Z" fill="white"/>
<path d="M274.989 276.361C273.359 274.491 270.443 274.576 268.813 276.446L251.486 296.845C250.714 297.78 250.886 299.225 251.829 299.99C255.775 302.795 265.639 309 275.161 309C283.995 309 291.973 305.6 295.833 303.645C297.119 303.05 297.377 301.35 296.433 300.33L274.989 276.361Z" fill="white"/>
</svg>
